<svg width="244" height="176" viewBox="0 0 244 176" fill="none" xmlns="http://www.w3.org/2000/svg">
<mask id="path-1-inside-1_6_344" fill="white">
<path fill-rule="evenodd" clip-rule="evenodd" d="M185.766 175.125L87.3508 175.125C39.1083 175.125 0 136.034 0 87.8125C0 39.5911 39.1083 0.5 87.3508 0.5C126.143 0.5 159.029 25.7756 170.424 60.7495C175.312 59.4187 180.456 58.7084 185.766 58.7084C217.928 58.7084 244 84.7691 244 116.917C244 149.064 217.928 175.125 185.766 175.125Z"/>
</mask>
<g filter="url(#filter0_i_6_344)">
<path fill-rule="evenodd" clip-rule="evenodd" d="M185.766 175.125L87.3508 175.125C39.1083 175.125 0 136.034 0 87.8125C0 39.5911 39.1083 0.5 87.3508 0.5C126.143 0.5 159.029 25.7756 170.424 60.7495C175.312 59.4187 180.456 58.7084 185.766 58.7084C217.928 58.7084 244 84.7691 244 116.917C244 149.064 217.928 175.125 185.766 175.125Z" fill="url(#paint0_linear_6_344)"/>
</g>
<path d="M87.3508 175.125V174.125V175.125ZM185.766 175.125V176.125V175.125ZM170.424 60.7495L169.474 61.0593L169.769 61.9645L170.687 61.7144L170.424 60.7495ZM87.3508 176.125L185.766 176.125V174.125L87.3508 174.125V176.125ZM-1 87.8125C-1 136.587 38.5564 176.125 87.3508 176.125V174.125C39.6602 174.125 1 135.481 1 87.8125H-1ZM87.3508 -0.5C38.5564 -0.5 -1 39.0384 -1 87.8125H1C1 40.1438 39.6602 1.5 87.3508 1.5V-0.5ZM171.375 60.4397C159.849 25.0661 126.588 -0.5 87.3508 -0.5V1.5C125.697 1.5 158.208 26.4851 169.474 61.0593L171.375 60.4397ZM170.687 61.7144C175.49 60.4067 180.546 59.7084 185.766 59.7084V57.7084C180.367 57.7084 175.135 58.4307 170.162 59.7846L170.687 61.7144ZM185.766 59.7084C217.376 59.7084 243 85.3218 243 116.917H245C245 84.2164 218.48 57.7084 185.766 57.7084V59.7084ZM243 116.917C243 148.512 217.376 174.125 185.766 174.125V176.125C218.48 176.125 245 149.617 245 116.917H243Z" fill="black" fill-opacity="0.05" mask="url(#path-1-inside-1_6_344)"/>
<defs>
<filter id="filter0_i_6_344" x="0" y="0.5" width="244" height="223.272" filterUnits="userSpaceOnUse" color-interpolation-filters="sRGB">
<feFlood flood-opacity="0" result="BackgroundImageFix"/>
<feBlend mode="normal" in="SourceGraphic" in2="BackgroundImageFix" result="shape"/>
<feColorMatrix in="SourceAlpha" type="matrix" values="0 0 0 0 0 0 0 0 0 0 0 0 0 0 0 0 0 0 127 0" result="hardAlpha"/>
<feOffset dy="48.6468"/>
<feGaussianBlur stdDeviation="30"/>
<feComposite in2="hardAlpha" operator="arithmetic" k2="-1" k3="1"/>
<feColorMatrix type="matrix" values="0 0 0 0 1 0 0 0 0 1 0 0 0 0 1 0 0 0 1 0"/>
<feBlend mode="normal" in2="shape" result="effect1_innerShadow_6_344"/>
</filter>
<linearGradient id="paint0_linear_6_344" x1="17.0935" y1="0.499999" x2="244.015" y2="175.199" gradientUnits="userSpaceOnUse">
<stop stop-color="white"/>
<stop offset="1" stop-color="#C1C1C1"/>
</linearGradient>
</defs>
</svg>
