<svg width="966" height="630" viewBox="0 0 966 630" fill="none" xmlns="http://www.w3.org/2000/svg">
<path d="M46.4777 463.11C58.4622 416.837 108.94 329.137 214.978 348.526C347.524 372.763 358.906 397.1 404.186 331.542C449.465 265.984 396.267 192.065 533.968 133.882C671.669 75.6983 727.825 278.05 780.357 202.249C832.888 126.448 738.228 114.87 800.557 73.6579C850.42 40.688 887.971 61.329 900.513 75.7708" stroke="#6CA3C0" stroke-opacity="0.1" stroke-linecap="round"/>
<path d="M48.1287 473.012C60.2063 426.973 110.836 339.654 216.735 358.696C349.109 382.499 360.426 406.673 405.813 341.383C451.199 276.093 398.214 202.711 535.923 144.547C673.631 86.3826 729.283 287.467 781.938 211.975C834.593 136.484 740.043 125.184 802.409 84.0643C852.301 51.1685 889.772 71.6088 902.271 85.9409" stroke="#6CA3C0" stroke-opacity="0.1" stroke-linecap="round"/>
<path d="M50.5892 482.072C62.6034 435.787 113.165 348.053 219.299 367.405C351.966 391.594 363.35 415.93 408.699 350.344C454.048 284.758 400.827 210.848 538.686 152.602C676.544 94.3564 732.677 296.718 785.289 220.885C837.902 145.051 743.153 133.508 805.559 92.2654C855.484 59.2709 893.064 79.9005 905.613 94.3396" stroke="#6CA3C0" stroke-opacity="0.1" stroke-linecap="round"/>
<path d="M54.216 491.188C66.2937 445.148 116.924 357.83 222.823 376.872C355.196 400.675 366.514 424.849 411.9 359.559C457.286 294.269 404.302 220.887 542.01 162.723C679.719 104.558 735.37 305.643 788.025 230.151C840.68 154.66 746.131 143.36 808.496 102.24C858.389 69.3443 895.86 89.7846 908.358 104.117" stroke="#6CA3C0" stroke-opacity="0.1" stroke-linecap="round"/>
<path d="M57.0695 501.236C69.054 454.962 119.532 367.262 225.569 386.652C358.116 410.889 369.498 435.225 414.778 369.667C460.057 304.109 406.859 230.19 544.56 172.007C682.261 113.824 738.417 316.176 790.949 240.375C843.48 164.574 748.82 152.996 811.149 111.783C861.012 78.8136 898.563 99.4546 911.105 113.896" stroke="#6CA3C0" stroke-opacity="0.1" stroke-linecap="round"/>
<path d="M59.6192 510.52C71.5739 464.258 121.968 376.592 227.909 396.02C360.336 420.305 371.716 444.642 416.925 379.112C462.135 313.582 408.96 239.653 546.504 181.533C684.047 123.412 740.227 325.755 792.678 249.986C845.128 174.217 750.556 162.604 812.808 121.422C862.609 88.477 900.131 109.129 912.667 123.574" stroke="#6CA3C0" stroke-opacity="0.1" stroke-linecap="round"/>
<path d="M61.8652 519.041C73.913 473.014 124.459 385.728 230.262 404.809C362.515 428.66 373.831 452.834 419.147 387.572C464.464 322.31 411.502 248.918 549.053 190.817C686.604 132.716 742.28 333.79 794.854 258.331C847.427 182.872 752.966 171.537 815.255 130.448C865.085 97.5766 902.528 118.028 915.02 132.363" stroke="#6CA3C0" stroke-opacity="0.1" stroke-linecap="round"/>
<path d="M64.7187 529.089C76.6733 482.827 127.068 395.161 233.009 414.589C365.435 438.874 376.815 463.211 422.025 397.681C467.234 332.151 414.06 258.222 551.603 200.102C689.146 141.981 745.326 344.324 797.777 268.555C850.228 192.786 755.656 181.173 817.907 139.991C867.709 107.046 905.231 127.698 917.766 142.143" stroke="#6CA3C0" stroke-opacity="0.1" stroke-linecap="round"/>
<path d="M67.3576 538.598C79.4055 492.57 129.952 405.285 235.755 424.366C368.008 448.216 379.323 472.391 424.64 407.129C469.956 341.867 416.995 268.475 554.546 210.374C692.097 152.272 747.772 353.347 800.346 277.888C852.92 202.429 758.459 191.094 820.747 150.005C870.578 117.133 908.02 137.585 920.512 151.92" stroke="#6CA3C0" stroke-opacity="0.1" stroke-linecap="round"/>
<path d="M69.9073 547.882C81.9552 501.855 132.502 414.57 238.304 433.65C370.558 457.501 381.873 481.675 427.189 416.413C472.506 351.151 419.544 277.76 557.095 219.658C694.646 161.557 750.322 362.632 802.896 287.172C855.47 211.713 761.008 200.378 823.297 159.289C873.128 126.418 910.57 146.87 923.062 161.204" stroke="#6CA3C0" stroke-opacity="0.1" stroke-linecap="round"/>
<path d="M71.3798 557.336C83.3643 511.062 133.842 423.362 239.88 442.752C372.426 466.989 383.808 491.325 429.088 425.767C474.367 360.209 421.169 286.29 558.87 228.107C696.571 169.924 752.727 372.276 805.259 296.475C857.79 220.673 763.13 209.096 825.459 167.883C875.322 134.913 912.873 155.554 925.415 169.996" stroke="#6CA3C0" stroke-opacity="0.1" stroke-linecap="round"/>
<path d="M74.0188 566.844C86.0964 520.805 136.726 433.487 242.625 452.529C374.999 476.331 386.316 500.505 431.703 435.215C477.089 369.926 424.104 296.543 561.813 238.379C699.522 180.215 755.173 381.299 807.828 305.808C860.483 230.316 765.933 219.016 828.299 177.897C878.192 145.001 915.662 165.441 928.161 179.773" stroke="#6CA3C0" stroke-opacity="0.1" stroke-linecap="round"/>
<path d="M76.8722 576.892C88.8865 530.607 139.448 442.874 245.582 462.225C378.249 486.414 389.633 510.75 434.982 445.164C480.332 379.578 427.11 305.669 564.969 247.423C702.827 189.177 758.96 391.538 811.572 315.705C864.185 239.871 769.437 228.329 831.842 187.086C881.767 154.091 919.347 174.721 931.896 189.16" stroke="#6CA3C0" stroke-opacity="0.1" stroke-linecap="round"/>
<path d="M79.422 586.177C91.3767 539.915 141.771 452.248 247.712 471.676C380.138 495.961 391.519 520.298 436.728 454.768C481.938 389.238 428.763 315.31 566.306 257.189C703.85 199.069 760.03 401.411 812.48 325.642C864.931 249.873 770.359 238.261 832.611 197.079C882.412 164.133 919.934 184.786 932.47 199.23" stroke="#6CA3C0" stroke-opacity="0.1" stroke-linecap="round"/>
<path d="M81.9717 595.461C93.9561 549.188 144.434 461.488 250.472 480.877C383.018 505.114 394.4 529.451 439.68 463.893C484.959 398.335 431.761 324.416 569.462 266.233C707.163 208.049 763.319 410.401 815.851 334.6C868.382 258.799 773.722 247.221 836.051 206.009C885.914 173.039 923.465 193.68 936.007 208.122" stroke="#6CA3C0" stroke-opacity="0.1" stroke-linecap="round"/>
</svg>
